<svg width="48" height="48" viewBox="0 0 48 48" fill="none" xmlns="http://www.w3.org/2000/svg">
<path d="M11.1769 30.7732C10.6702 30.2042 10.3716 29.4788 10.3305 28.7165V19.2099C10.3715 18.4474 10.6701 17.7219 11.1769 17.153L11.8462 16.4803C12.0706 16.2543 12.1967 15.948 12.1967 15.6287C12.1967 15.3094 12.0706 15.0031 11.8462 14.7771L4.74657 7.6405C4.52144 7.41515 4.21665 7.28863 3.8989 7.28863C3.58114 7.28863 3.27635 7.41515 3.05122 7.6405L0.348751 10.3567C0.125339 10.5833 0 10.8893 0 11.2083C0 11.5273 0.125339 11.8334 0.348751 12.06L5.41587 17.1528C5.92356 17.7212 6.22251 18.447 6.2631 19.2097V28.7162C6.22262 29.4786 5.92362 30.2038 5.41587 30.7716L0.348751 35.8664C0.125339 36.0931 0 36.3992 0 36.718C0 37.037 0.125339 37.3431 0.348751 37.5698L3.05122 40.2858C3.27637 40.5111 3.58117 40.6377 3.8989 40.6377C4.21662 40.6377 4.52142 40.5111 4.74657 40.2858L11.8462 33.1488C12.0706 32.9226 12.1967 32.6165 12.1967 32.2972C12.1967 31.9778 12.0706 31.6716 11.8462 31.4457L11.1769 30.7732Z" fill="white"/>
<path d="M30.6873 36.766C30.1214 37.2752 29.3999 37.5756 28.6413 37.6177H19.1854C18.4264 37.5756 17.7042 37.2754 17.1376 36.766L16.4699 36.0915C16.244 35.8669 15.9391 35.741 15.6214 35.741C15.3037 35.741 14.9989 35.8669 14.773 36.0915L7.67425 43.2281C7.45014 43.4547 7.32432 43.7613 7.32432 44.0808C7.32432 44.4002 7.45014 44.7068 7.67425 44.9332L10.3767 47.6495C10.6024 47.8741 10.9071 48 11.2246 48C11.5422 48 11.8469 47.8741 12.0725 47.6495L17.1385 42.554C17.7049 42.0451 18.4269 41.7448 19.1856 41.7027H28.6442C29.4028 41.7446 30.1244 42.0448 30.6902 42.554L35.7585 47.6495C35.9841 47.8741 36.2885 48 36.606 48C36.9233 48 37.228 47.8741 37.4534 47.6495L40.1558 44.9332C40.3801 44.7068 40.5058 44.4002 40.5058 44.0808C40.5058 43.7613 40.3801 43.4547 40.1558 43.2281L33.052 36.091C32.8266 35.8664 32.5222 35.7405 32.2049 35.7405C31.8876 35.7405 31.5829 35.8664 31.3575 36.091L30.6873 36.766Z" fill="white"/>
<path d="M36.8201 17.2264C37.3281 17.7958 37.6276 18.5224 37.6688 19.2861V28.7891C37.6273 29.5524 37.3278 30.2785 36.8201 30.8472L36.1506 31.5215C35.9268 31.7479 35.8013 32.054 35.8013 32.3733C35.8013 32.6923 35.9268 32.9984 36.1506 33.2248L43.2522 40.3605C43.4773 40.5858 43.7822 40.7121 44.0998 40.7121C44.4175 40.7121 44.7222 40.5858 44.9473 40.3605L47.6498 37.6429C47.874 37.4167 48 37.1103 48 36.7911C48 36.4718 47.874 36.1655 47.6498 35.9393L42.5838 30.8463C42.0759 30.2776 41.7761 29.5515 41.7347 28.7882L41.736 19.2852C41.7768 18.5216 42.0759 17.7949 42.5838 17.2254L47.6498 12.1326C47.874 11.9068 48 11.6009 48 11.2819C48 10.9629 47.874 10.6569 47.6498 10.4311L44.9473 7.71336C44.836 7.60149 44.704 7.51273 44.5586 7.45219C44.413 7.39165 44.2573 7.36047 44.0998 7.36047C43.9425 7.36047 43.7865 7.39165 43.6412 7.45219C43.4956 7.51273 43.3635 7.60149 43.2522 7.71336L36.1506 14.8488C35.9268 15.0752 35.8013 15.3814 35.8013 15.7005C35.8013 16.0197 35.9268 16.3259 36.1506 16.5523L36.8201 17.2264Z" fill="white"/>
<path d="M17.3092 11.2338C17.8749 10.7239 18.5969 10.4234 19.3557 10.382H28.8124C29.5709 10.4241 30.2925 10.7245 30.8586 11.2338L31.5295 11.9079C31.6406 12.0197 31.7726 12.1084 31.918 12.169C32.0633 12.2295 32.2191 12.2607 32.3764 12.2607C32.5337 12.2607 32.6896 12.2295 32.8347 12.169C32.9801 12.1084 33.1121 12.0197 33.2235 11.9079L40.324 4.77084C40.548 4.54427 40.6737 4.23777 40.6737 3.9183C40.6737 3.59885 40.548 3.29235 40.324 3.06575L37.6215 0.352741C37.3966 0.126874 37.0917 0 36.7737 0C36.4557 0 36.1508 0.126874 35.9259 0.352741L30.8588 5.4456C30.2927 5.95488 29.5711 6.25528 28.8126 6.29733H19.3557C18.5969 6.25601 17.8749 5.95551 17.3092 5.4456L12.2421 0.352741C12.0165 0.128249 11.7118 0.00232096 11.3943 0.00232096C11.0768 0.00232096 10.7722 0.128249 10.5465 0.352741L7.84407 3.06892C7.62002 3.29547 7.49425 3.60193 7.49425 3.92135C7.49425 4.24078 7.62002 4.54723 7.84407 4.77378L14.943 11.9076C15.1679 12.1335 15.4728 12.2604 15.7908 12.2604C16.1087 12.2604 16.4137 12.1335 16.6386 11.9076L17.3092 11.2338Z" fill="white"/>
</svg>
